HIERARCHY
ROOT joint_Root
{
	OFFSET 0.0 0.0 0.0
	CHANNELS 6 Xposition Yposition Zposition Zrotation Xrotation Yrotation 
	JOINT Hips
	{
		OFFSET 4.5925 91.4895 -427.239
		CHANNELS 6 Xposition Yposition Zposition Zrotation Xrotation Yrotation 
		JOINT Spine
		{
			OFFSET 15.7357 0.0 0.0
			CHANNELS 6 Xposition Yposition Zposition Zrotation Xrotation Yrotation 
			JOINT Chest
			{
				OFFSET 8.98455 -0.406207 0.0
				CHANNELS 6 Xposition Yposition Zposition Zrotation Xrotation Yrotation 
				JOINT Neck
				{
					OFFSET 16.3773 0.0 0.0
					CHANNELS 6 Xposition Yposition Zposition Zrotation Xrotation Yrotation 
					JOINT Head
					{
						OFFSET 6.45672 0.0 0.0
						CHANNELS 6 Xposition Yposition Zposition Zrotation Xrotation Yrotation 
						End Site
						{
							OFFSET 0.0 0.0 0.0
						}
					}
				}
				JOINT Shoulder_L
				{
					OFFSET 12.9942 -0.242716 4.98039
					CHANNELS 6 Xposition Yposition Zposition Zrotation Xrotation Yrotation 
					JOINT UpperArm_L
					{
						OFFSET 5.34809 0.0 0.0
						CHANNELS 6 Xposition Yposition Zposition Zrotation Xrotation Yrotation 
						JOINT LowerArm_L
						{
							OFFSET 24.3286 1.87007e-05 0.0
							CHANNELS 6 Xposition Yposition Zposition Zrotation Xrotation Yrotation 
							JOINT Hand_L
							{
								OFFSET 22.2916 0.0 0.0
								CHANNELS 6 Xposition Yposition Zposition Zrotation Xrotation Yrotation 
								End Site
								{
									OFFSET 0.0 0.0 0.0
								}
							}
						}
					}
				}
				JOINT Shoulder_R
				{
					OFFSET 12.9945 -0.242716 -4.98039
					CHANNELS 6 Xposition Yposition Zposition Zrotation Xrotation Yrotation 
					JOINT UpperArm_R
					{
						OFFSET -5.34813 0.0 0.0
						CHANNELS 6 Xposition Yposition Zposition Zrotation Xrotation Yrotation 
						JOINT LowerArm_R
						{
							OFFSET -24.3289 0.000322201 0.0
							CHANNELS 6 Xposition Yposition Zposition Zrotation Xrotation Yrotation 
							JOINT Hand_R
							{
								OFFSET -22.2915 -0.000108084 0.0
								CHANNELS 6 Xposition Yposition Zposition Zrotation Xrotation Yrotation 
								End Site
								{
									OFFSET 0.0 0.0 0.0
								}
							}
						}
					}
				}
			}
		}
		JOINT UpperLeg_L
		{
			OFFSET -2.19248 -6.46944 0.0
			CHANNELS 6 Xposition Yposition Zposition Zrotation Xrotation Yrotation 
			JOINT LowerLeg_L
			{
				OFFSET 39.0811 0.0 -1.23785e-05
				CHANNELS 6 Xposition Yposition Zposition Zrotation Xrotation Yrotation 
				JOINT Foot_L
				{
					OFFSET 40.9854 0.0 -1.26872e-05
					CHANNELS 6 Xposition Yposition Zposition Zrotation Xrotation Yrotation 
					JOINT Toes_L
					{
						OFFSET 11.7543 0.0 0.0
						CHANNELS 6 Xposition Yposition Zposition Zrotation Xrotation Yrotation 
						End Site
						{
							OFFSET 0.0 0.0 0.0
						}
					}
				}
			}
		}
		JOINT UpperLeg_R
		{
			OFFSET -2.19251 6.46944 0.0
			CHANNELS 6 Xposition Yposition Zposition Zrotation Xrotation Yrotation 
			JOINT LowerLeg_R
			{
				OFFSET -39.0811 -0.00228153 -0.0401928
				CHANNELS 6 Xposition Yposition Zposition Zrotation Xrotation Yrotation 
				JOINT Foot_R
				{
					OFFSET -40.9854 0.0 0.0
					CHANNELS 6 Xposition Yposition Zposition Zrotation Xrotation Yrotation 
					JOINT Toes_R
					{
						OFFSET -11.7543 0.0 0.0
						CHANNELS 6 Xposition Yposition Zposition Zrotation Xrotation Yrotation 
						End Site
						{
							OFFSET 0.0 0.0 0.0
						}
					}
				}
			}
		}
	}
}
MOTION
Frames:	6
Frame Time:	0.0333333
0.000000 0.000000 0.000000 0.000000 0.000000 -0.000000 -1.550410 90.282700 -3.082470 88.881100 -2.642200 11.863600 15.735700 0.000005 -0.000001 88.082600 77.655000 -87.947900 8.984550 -0.406207 -0.000000 16.912300 -0.801883 0.388935 16.377300 -0.000001 -0.000001 4.655370 -3.951840 2.621890 6.456720 -0.000001 -0.000000 -5.591040 -3.623000 0.951479 12.994200 -0.242716 4.980390 -91.064200 5.037220 -78.055100 5.348090 -0.000007 -0.000001 -54.774700 40.077300 -30.280300 24.328600 0.000019 0.000005 7.971430 19.443900 -22.814700 22.291600 -0.000001 0.000005 10.246600 5.275400 0.751850 12.994500 -0.242716 -4.980390 89.280500 10.179600 -85.935700 -5.348130 -0.000001 -0.000004 -57.679500 35.385200 -23.209100 -24.328900 0.000322 -0.000009 1.929430 5.122510 -20.682000 -22.291500 -0.000108 -0.000004 16.470100 5.420090 -3.601970 -2.192480 -6.469440 -0.000000 -173.670000 -12.448600 -2.638460 39.081100 -0.000007 -0.000012 -0.214889 0.309345 34.786400 40.985400 -0.000006 -0.000013 -0.397785 3.203530 -69.876300 11.754300 -0.000000 0.000003 -0.000214 -0.001959 -16.651300 -2.192510 6.469440 -0.000001 175.042000 20.694500 179.033000 -39.081100 -0.002282 -0.040193 -0.232890 0.355933 33.567100 -40.985400 0.000008 0.000006 3.906640 12.157600 -70.371400 -11.754300 -0.000006 -0.000006 -0.002873 -0.039156 -18.165500
0.000000 0.000000 0.000000 0.000000 0.000000 -0.000000 -1.549880 90.280700 -3.089620 88.877500 -2.622170 11.876000 15.735700 0.000005 -0.000001 88.019800 77.669400 -87.872100 8.984550 -0.406207 -0.000000 16.882800 -0.826570 0.418456 16.377300 -0.000001 -0.000001 4.690360 -3.985560 2.676780 6.456720 -0.000001 -0.000000 -5.652340 -3.625970 0.914818 12.994200 -0.242716 4.980390 -91.057600 5.000440 -78.041600 5.348090 -0.000007 -0.000001 -54.899700 39.459600 -30.044300 24.328600 0.000019 0.000005 8.399650 19.517300 -23.844000 22.291600 -0.000001 0.000005 10.428300 5.272490 0.830847 12.994500 -0.242716 -4.980390 89.282200 10.146300 -85.931900 -5.348130 -0.000001 -0.000004 -57.741500 35.377200 -23.185600 -24.328900 0.000322 -0.000009 1.919450 5.080440 -20.739500 -22.291500 -0.000108 -0.000004 16.444700 5.421210 -3.639940 -2.192480 -6.469440 -0.000000 -173.677000 -12.427600 -2.647950 39.081100 -0.000007 -0.000012 -0.209747 0.301760 34.802700 40.985400 -0.000006 -0.000013 -0.390769 3.207990 -69.874300 11.754300 -0.000000 0.000003 -0.000200 -0.001848 -16.647300 -2.192510 6.469440 -0.000001 175.052000 20.698500 179.035000 -39.081100 -0.002282 -0.040193 -0.230868 0.352751 33.577100 -40.985400 0.000008 0.000006 3.907880 12.132300 -70.372200 -11.754300 -0.000006 -0.000006 -0.002904 -0.039508 -18.179800
0.000000 0.000000 0.000000 0.000000 0.000000 -0.000000 -1.548120 90.281100 -3.094410 88.893000 -2.631040 11.851500 15.735700 0.000005 -0.000001 88.039400 77.705600 -87.891700 8.984550 -0.406207 -0.000000 16.810700 -0.815996 0.416462 16.377300 -0.000001 -0.000001 4.714880 -4.020020 2.705690 6.456720 -0.000001 -0.000000 -5.627960 -3.667780 0.964612 12.994200 -0.242716 4.980390 -91.040400 4.914160 -78.030300 5.348090 -0.000007 -0.000001 -54.783900 38.933500 -29.989400 24.328600 0.000019 0.000005 8.812550 19.340400 -25.085200 22.291600 -0.000001 0.000005 10.557100 5.275000 0.762449 12.994500 -0.242716 -4.980390 89.278100 10.140400 -85.906700 -5.348130 -0.000001 -0.000004 -57.771300 35.403900 -23.138900 -24.328900 0.000322 -0.000009 1.927820 5.089150 -20.789800 -22.291500 -0.000108 -0.000004 16.412900 5.420730 -3.623840 -2.192480 -6.469440 -0.000000 -173.698000 -12.445700 -2.665220 39.081100 -0.000007 -0.000012 -0.210601 0.303093 34.793400 40.985400 -0.000006 -0.000013 -0.391217 3.195010 -69.872200 11.754300 -0.000000 0.000003 -0.000199 -0.001843 -16.647100 -2.192510 6.469440 -0.000001 175.041000 20.695300 179.001000 -39.081100 -0.002282 -0.040193 -0.233743 0.356970 33.585500 -40.985400 0.000008 0.000006 3.902380 12.127400 -70.371400 -11.754300 -0.000006 -0.000006 -0.002865 -0.039066 -18.161800
0.000000 0.000000 0.000000 0.000000 0.000000 -0.000000 -1.555790 90.281500 -3.090660 88.881800 -2.656130 11.855100 15.735700 0.000005 -0.000001 88.081800 77.731800 -87.922500 8.984550 -0.406207 -0.000000 16.758900 -0.795657 0.436120 16.377300 -0.000001 -0.000001 4.768540 -4.031770 2.738800 6.456720 -0.000001 -0.000000 -5.627600 -3.693270 0.985865 12.994200 -0.242716 4.980390 -91.031600 4.861990 -78.005800 5.348090 -0.000007 -0.000001 -54.447300 38.326600 -30.116600 24.328600 0.000019 0.000005 9.331890 19.197700 -26.552800 22.291600 -0.000001 0.000005 10.624600 5.277640 0.690886 12.994500 -0.242716 -4.980390 89.284500 10.097000 -85.925500 -5.348130 -0.000001 -0.000004 -57.863800 35.381700 -23.060000 -24.328900 0.000322 -0.000009 1.952200 5.150430 -20.801700 -22.291500 -0.000108 -0.000004 16.460400 5.420940 -3.630620 -2.192480 -6.469440 -0.000000 -173.669000 -12.491200 -2.656670 39.081100 -0.000007 -0.000012 -0.209382 0.301309 34.796100 40.985400 -0.000006 -0.000013 -0.390376 3.217340 -69.873800 11.754300 -0.000000 0.000003 -0.000199 -0.001841 -16.647000 -2.192510 6.469440 -0.000001 175.059000 20.681700 179.012000 -39.081100 -0.002282 -0.040193 -0.232206 0.354775 33.576500 -40.985400 0.000008 0.000006 3.910770 12.140300 -70.372300 -11.754300 -0.000006 -0.000006 -0.002899 -0.039451 -18.177500
0.000000 0.000000 0.000000 0.000000 0.000000 -0.000000 -1.558570 90.284800 -3.101090 88.889400 -2.617260 11.853500 15.735700 0.000005 -0.000001 88.073500 77.745400 -87.912800 8.984550 -0.406207 -0.000000 16.731500 -0.798203 0.439247 16.377300 -0.000001 -0.000001 4.759140 -4.062240 2.771510 6.456720 -0.000001 -0.000000 -5.614660 -3.727200 1.021820 12.994200 -0.242716 4.980390 -91.027300 4.816170 -77.944700 5.348090 -0.000007 -0.000001 -53.978500 37.497200 -30.483100 24.328600 0.000019 0.000005 10.059700 19.348600 -28.166500 22.291600 -0.000001 0.000005 10.751500 5.278130 0.676923 12.994500 -0.242716 -4.980390 89.285000 10.055100 -85.911500 -5.348130 -0.000001 -0.000004 -57.923600 35.357600 -23.050700 -24.328900 0.000322 -0.000009 1.929020 5.088530 -20.803800 -22.291500 -0.000108 -0.000004 16.418500 5.420230 -3.606780 -2.192480 -6.469440 -0.000000 -173.686000 -12.443500 -2.665820 39.081100 -0.000007 -0.000012 -0.210492 0.303106 34.778500 40.985400 -0.000006 -0.000013 -0.397893 3.202970 -69.853200 11.754300 -0.000000 0.000003 -0.000201 -0.001856 -16.647600 -2.192510 6.469440 -0.000001 175.042000 20.756100 179.016000 -39.081100 -0.002282 -0.040193 -0.230497 0.352335 33.566500 -40.985400 0.000008 0.000006 3.921750 12.156100 -70.365100 -11.754300 -0.000006 -0.000006 -0.002944 -0.039970 -18.198600
0.000000 0.000000 0.000000 0.000000 0.000000 -0.000000 -1.570170 90.283000 -3.125080 88.906500 -2.586700 11.874300 15.735700 0.000005 -0.000001 88.055000 77.757500 -87.892600 8.984550 -0.406207 -0.000000 16.707200 -0.805122 0.443563 16.377300 -0.000001 -0.000001 4.785950 -4.081870 2.798770 6.456720 -0.000001 -0.000000 -5.622150 -3.738310 1.011290 12.994200 -0.242716 4.980390 -91.026600 4.789740 -77.888300 5.348090 -0.000007 -0.000001 -53.399100 36.535700 -30.939300 24.328600 0.000019 0.000005 10.676100 19.155900 -29.877400 22.291600 -0.000001 0.000005 11.058500 5.277740 0.687925 12.994500 -0.242716 -4.980390 89.288700 10.022300 -85.919500 -5.348130 -0.000001 -0.000004 -57.969400 35.303700 -23.011600 -24.328900 0.000322 -0.000009 1.910140 5.039100 -20.801900 -22.291500 -0.000108 -0.000004 16.328000 5.420400 -3.612580 -2.192480 -6.469440 -0.000000 -173.699000 -12.435300 -2.662800 39.081100 -0.000007 -0.000012 -0.207516 0.298794 34.780900 40.985400 -0.000006 -0.000013 -0.391611 3.233790 -69.839800 11.754300 -0.000000 0.000003 -0.000191 -0.001782 -16.644900 -2.192510 6.469440 -0.000001 175.036000 20.735500 179.005000 -39.081100 -0.002282 -0.040193 -0.231153 0.353005 33.590400 -40.985400 0.000008 0.000006 3.923140 12.122100 -70.361700 -11.754300 -0.000006 -0.000006 -0.002784 -0.038138 -18.124100
